<?xml version="1.0" standalone="no"?>
<!DOCTYPE svg PUBLIC "-//W3C//DTD SVG 20010904//EN"
 "http://www.w3.org/TR/2001/REC-SVG-20010904/DTD/svg10.dtd">
<svg version="1.0" xmlns="http://www.w3.org/2000/svg"
 width="317.000000pt" height="374.000000pt" viewBox="0 0 317.000000 374.000000"
 preserveAspectRatio="xMidYMid meet">
<metadata>
Created by potrace 1.16, written by Peter Selinger 2001-2019
</metadata>
<g transform="translate(0.000000,374.000000) scale(0.100000,-0.100000)"
fill="#000000" stroke="none">
<path d="M1538 3464 c-85 -26 -168 -139 -168 -226 0 -48 -14 -83 -44 -111
l-24 -22 39 -83 40 -82 47 0 c26 1 61 8 77 16 17 8 22 12 13 10 -10 -3 -39 -8
-66 -12 -56 -7 -59 -5 -91 78 l-23 57 26 34 c17 22 30 57 36 93 21 126 89 204
185 212 230 19 299 -169 168 -462 -49 -110 -51 -181 -8 -251 37 -59 98 -95
163 -95 50 0 119 28 148 61 14 15 4 12 -33 -11 -47 -29 -58 -32 -111 -28 -140
10 -205 145 -133 279 61 116 84 197 85 300 1 89 -1 99 -29 145 -53 87 -190
132 -297 98z"/>
<path d="M1510 2749 c-45 -75 -108 -159 -173 -226 l-39 -41 12 -51 c8 -35 26
-66 59 -104 42 -47 50 -64 65 -136 10 -45 15 -88 12 -96 -3 -9 -19 -15 -42
-15 -108 0 -367 -76 -487 -144 -241 -134 -494 -411 -618 -675 -54 -114 -94
-252 -77 -263 7 -4 56 -27 108 -50 115 -50 255 -93 370 -113 46 -9 87 -19 91
-23 4 -4 14 -51 23 -105 28 -164 115 -398 171 -456 39 -40 396 134 579 282
l30 24 105 -78 c157 -117 415 -239 503 -239 13 0 28 23 51 72 70 153 110 280
137 440 l12 67 56 7 c90 10 269 59 361 98 113 48 161 80 161 109 -1 37 -92
247 -149 342 -152 254 -376 464 -609 572 -89 40 -255 91 -329 100 -30 3 -60
12 -67 19 -26 26 -53 202 -57 379 -1 44 -4 70 -6 58 -5 -28 -10 -28 -105 -4
-72 19 -218 84 -218 98 0 3 17 33 38 67 36 56 85 156 78 156 -2 0 -23 -32 -46
-71z"/>
</g>
</svg>
