<?xml version="1.0" encoding="UTF-8"?>
<!DOCTYPE svg PUBLIC "-//W3C//DTD SVG 1.1//EN" "http://www.w3.org/Graphics/SVG/1.1/DTD/svg11.dtd">
<svg xmlns="http://www.w3.org/2000/svg" version="1.1" width="317px" height="374px" style="shape-rendering:geometricPrecision; text-rendering:geometricPrecision; image-rendering:optimizeQuality; fill-rule:evenodd; clip-rule:evenodd" xmlns:xlink="http://www.w3.org/1999/xlink">
<g><path style="opacity:0.98" fill="#191919" d="M 185.5,40.5 C 186.539,46.7967 186.706,53.1301 186,59.5C 184.521,63.4174 183.354,67.4174 182.5,71.5C 179.774,75.9459 177.274,80.6126 175,85.5C 172.725,102.889 180.225,110.722 197.5,109C 200.732,107.77 203.399,105.77 205.5,103C 206.167,102.333 206.833,102.333 207.5,103C 197.632,113.173 187.132,114.006 176,105.5C 170.031,97.7758 169.031,89.4425 173,80.5C 179.884,69.0779 182.551,56.7445 181,43.5C 178.656,36.4923 173.823,32.3256 166.5,31C 148.988,29.5006 139.822,37.6672 139,55.5C 137.654,58.87 135.821,61.87 133.5,64.5C 135.361,68.7494 137.028,73.0827 138.5,77.5C 142.465,78.3671 146.465,78.3671 150.5,77.5C 150.082,78.2216 149.416,78.7216 148.5,79C 144.833,79.6667 141.167,79.6667 137.5,79C 135.035,73.9029 132.702,68.7362 130.5,63.5C 135.765,58.3442 137.932,52.0108 137,44.5C 142.586,29.1212 153.419,23.2879 169.5,27C 177.112,28.9497 182.445,33.4497 185.5,40.5 Z"/></g>
<g><path style="opacity:0.034" fill="#f4f4f4" d="M 185.5,40.5 C 182.445,33.4497 177.112,28.9497 169.5,27C 153.419,23.2879 142.586,29.1212 137,44.5C 137.932,52.0108 135.765,58.3442 130.5,63.5C 132.702,68.7362 135.035,73.9029 137.5,79C 141.167,79.6667 144.833,79.6667 148.5,79C 149.416,78.7216 150.082,78.2216 150.5,77.5C 146.465,78.3671 142.465,78.3671 138.5,77.5C 137.028,73.0827 135.361,68.7494 133.5,64.5C 135.821,61.87 137.654,58.87 139,55.5C 139.822,37.6672 148.988,29.5006 166.5,31C 173.823,32.3256 178.656,36.4923 181,43.5C 182.551,56.7445 179.884,69.0779 173,80.5C 169.031,89.4425 170.031,97.7758 176,105.5C 187.132,114.006 197.632,113.173 207.5,103C 206.833,102.333 206.167,102.333 205.5,103C 203.399,105.77 200.732,107.77 197.5,109C 180.225,110.722 172.725,102.889 175,85.5C 177.274,80.6126 179.774,75.9459 182.5,71.5C 179.687,78.1031 177.354,84.9365 175.5,92C 177.941,102.607 184.608,107.773 195.5,107.5C 199.277,105.292 202.61,102.625 205.5,99.5C 207.397,99.7282 208.73,100.728 209.5,102.5C 207.564,106.39 204.731,109.39 201,111.5C 200.667,111.167 200.333,110.833 200,110.5C 199.309,113.266 197.809,113.933 195.5,112.5C 190.681,113.194 185.848,113.86 181,114.5C 178.65,113.496 176.316,112.496 174,111.5C 173.308,112.025 172.808,112.692 172.5,113.5C 173.518,114.852 174.851,115.852 176.5,116.5C 177.469,118.573 178.135,120.739 178.5,123C 177.567,126.434 177.233,129.767 177.5,133C 178.679,141.826 179.846,150.66 181,159.5C 182.717,160.988 183.884,162.821 184.5,165C 192.659,166.778 200.326,168.945 207.5,171.5C 208.086,171.291 208.586,170.957 209,170.5C 214.123,173.622 219.623,175.789 225.5,177C 248.299,188.305 267.133,205.471 282,228.5C 289.5,242.366 295.667,256.866 300.5,272C 299.5,274.333 297.833,276 295.5,277C 288.77,279.782 282.27,282.949 276,286.5C 275.586,286.043 275.086,285.709 274.5,285.5C 263.451,289.31 252.117,291.977 240.5,293.5C 240.226,300.503 238.892,307.17 236.5,313.5C 237.605,306.534 238.605,299.534 239.5,292.5C 239.5,291.833 239.833,291.5 240.5,291.5C 260.907,289.642 279.907,283.475 297.5,273C 286.355,228.824 260.022,196.824 218.5,177C 206.816,172.579 194.816,169.412 182.5,167.5C 181.833,167.5 181.5,167.167 181.5,166.5C 180.146,161.902 178.979,157.236 178,152.5C 177.441,140.127 176.608,131.127 175.5,125.5C 163.969,124.712 153.469,121.046 144,114.5C 147.048,108.732 149.881,102.732 152.5,96.5C 146.372,106.387 139.039,115.387 130.5,123.5C 129.461,128.91 130.627,133.91 134,138.5C 140.072,142.979 143.239,148.979 143.5,156.5C 143.5,159.167 143.5,161.833 143.5,164.5C 104.648,167.847 73.1477,184.847 49,215.5C 35.0213,231.789 25.5213,250.456 20.5,271.5C 20.6082,272.442 20.9415,273.275 21.5,274C 24.3911,275.274 27.0578,276.774 29.5,278.5C 25.4784,277.657 21.8117,275.99 18.5,273.5C 19.4716,267.809 20.6382,262.143 22,256.5C 22.5,256 23,255.5 23.5,255C 23.2155,253.044 23.2155,250.877 23.5,248.5C 25.9418,248.881 26.6085,248.214 25.5,246.5C 30.4318,239.64 34.5984,232.307 38,224.5C 40.4319,221.312 43.0985,218.312 46,215.5C 47.0086,213.975 47.5086,212.308 47.5,210.5C 48.552,210.649 49.552,210.483 50.5,210C 60.3005,198.135 71.6338,187.802 84.5,179C 86.7801,178.767 88.7801,177.934 90.5,176.5C 104.251,169.798 119.251,165.631 135.5,164C 136.421,162.244 137.588,162.077 139,163.5C 140.171,162.66 141.338,161.827 142.5,161C 141.143,156.098 139.477,151.264 137.5,146.5C 136.272,143.929 134.272,142.595 131.5,142.5C 131.753,140.173 131.086,138.173 129.5,136.5C 130.718,135.197 130.385,134.197 128.5,133.5C 129.199,130.799 128.532,128.299 126.5,126C 128.125,125.147 128.458,124.147 127.5,123C 138.655,112.724 147.655,100.724 154.5,87C 161.692,86.5155 165.526,90.0155 166,97.5C 166.954,86.639 170.287,76.639 176,67.5C 178.692,60.378 179.692,53.0447 179,45.5C 173.939,33.8896 165.272,29.8896 153,33.5C 147.029,37.1815 143.529,42.1815 142.5,48.5C 140.535,53.2865 139.535,58.2865 139.5,63.5C 138.5,63.5 137.5,63.5 136.5,63.5C 136.927,67.856 138.594,71.6894 141.5,75C 146.486,75.2034 151.32,74.3701 156,72.5C 157.662,72.3875 158.829,73.0542 159.5,74.5C 158.405,76.6204 156.739,78.1204 154.5,79C 149.26,80.6538 143.926,81.8205 138.5,82.5C 136.528,81.6948 135.028,80.3615 134,78.5C 132.605,74.7107 130.939,71.044 129,67.5C 128.333,65.1667 128.333,62.8333 129,60.5C 130.829,58.8442 132.163,56.8442 133,54.5C 137.141,26.9408 152.141,17.9408 178,27.5C 179.99,30.4883 182.323,33.1549 185,35.5C 185.494,37.1341 185.66,38.8008 185.5,40.5 Z"/></g>
<g><path style="opacity:0.014" fill="#eeeeee" d="M 185.5,40.5 C 186.222,40.9175 186.722,41.5842 187,42.5C 188.283,52.0999 187.283,61.4332 184,70.5C 183.617,71.056 183.117,71.3893 182.5,71.5C 183.354,67.4174 184.521,63.4174 186,59.5C 186.706,53.1301 186.539,46.7967 185.5,40.5 Z"/></g>
<g><path style="opacity:0.627" fill="#878787" d="M 150.5,77.5 C 152.179,75.8253 154.179,74.992 156.5,75C 154.842,76.6625 152.842,77.4959 150.5,77.5 Z"/></g>
<g><path style="opacity:0.839" fill="#8b8b8b" d="M 152.5,96.5 C 152.929,93.6374 153.929,90.9707 155.5,88.5C 156.119,91.6306 155.119,94.2973 152.5,96.5 Z"/></g>
<g><path style="opacity:0.996" fill="#1c1c1c" d="M 152.5,96.5 C 149.881,102.732 147.048,108.732 144,114.5C 153.469,121.046 163.969,124.712 175.5,125.5C 176.608,131.127 177.441,140.127 178,152.5C 178.979,157.236 180.146,161.902 181.5,166.5C 180.735,166.923 179.902,167.257 179,167.5C 167.517,166.303 156.017,165.303 144.5,164.5C 144.806,161.615 144.473,158.948 143.5,156.5C 143.239,148.979 140.072,142.979 134,138.5C 130.627,133.91 129.461,128.91 130.5,123.5C 139.039,115.387 146.372,106.387 152.5,96.5 Z"/></g>
<g><path style="opacity:0.995" fill="#686868" d="M 143.5,156.5 C 144.473,158.948 144.806,161.615 144.5,164.5C 143.89,165.391 143.557,166.391 143.5,167.5C 134.615,168.407 126.615,171.573 119.5,177C 85.7488,207.74 72.0821,245.906 78.5,291.5C 74.4809,291.354 70.4809,291.021 66.5,290.5C 62.4101,288.925 58.0768,287.925 53.5,287.5C 50.5048,285.757 47.1715,284.757 43.5,284.5C 39.0768,281.956 34.4101,279.956 29.5,278.5C 27.0578,276.774 24.3911,275.274 21.5,274C 20.9415,273.275 20.6082,272.442 20.5,271.5C 25.5213,250.456 35.0213,231.789 49,215.5C 73.1477,184.847 104.648,167.847 143.5,164.5C 143.5,161.833 143.5,159.167 143.5,156.5 Z"/></g>
<g><path style="opacity:0.996" fill="#090909" d="M 144.5,164.5 C 156.017,165.303 167.517,166.303 179,167.5C 179.902,167.257 180.735,166.923 181.5,166.5C 181.5,167.167 181.833,167.5 182.5,167.5C 183.443,170.109 185.11,172.109 187.5,173.5C 186.77,175.045 185.437,175.878 183.5,176C 194.598,184.931 201.265,196.431 203.5,210.5C 204.376,233.248 195.709,251.414 177.5,265C 171.208,269.797 164.542,273.963 157.5,277.5C 136.487,267.989 122.321,252.322 115,230.5C 114.313,226.356 113.813,222.189 113.5,218C 114.275,213.177 114.942,208.343 115.5,203.5C 119.267,189.892 127.6,180.059 140.5,174C 142.451,172.266 143.451,170.099 143.5,167.5C 143.557,166.391 143.89,165.391 144.5,164.5 Z"/></g>
<g><path style="opacity:0.994" fill="#686868" d="M 182.5,167.5 C 194.816,169.412 206.816,172.579 218.5,177C 260.022,196.824 286.355,228.824 297.5,273C 279.907,283.475 260.907,289.642 240.5,291.5C 245.127,246.862 231.127,209.362 198.5,179C 195.09,176.628 191.423,174.795 187.5,173.5C 185.11,172.109 183.443,170.109 182.5,167.5 Z"/></g>
<g><path style="opacity:0.996" fill="#2c2c2c" d="M 143.5,167.5 C 143.451,170.099 142.451,172.266 140.5,174C 127.6,180.059 119.267,189.892 115.5,203.5C 114.531,205.663 113.698,207.996 113,210.5C 110.594,236.541 115.927,260.874 129,283.5C 130.295,285.122 131.795,286.455 133.5,287.5C 141.546,284.986 149.379,281.986 157,278.5C 165.048,282.907 173.548,286.24 182.5,288.5C 184.383,288.124 185.883,287.124 187,285.5C 200.262,262.008 205.762,237.008 203.5,210.5C 201.265,196.431 194.598,184.931 183.5,176C 185.437,175.878 186.77,175.045 187.5,173.5C 191.423,174.795 195.09,176.628 198.5,179C 231.127,209.362 245.127,246.862 240.5,291.5C 239.833,291.5 239.5,291.833 239.5,292.5C 221.144,294.482 202.977,293.482 185,289.5C 180.645,294.192 176.645,299.192 173,304.5C 168.622,309.214 163.956,313.547 159,317.5C 153.377,312.879 148.044,307.879 143,302.5C 138.975,297.735 134.975,293.068 131,288.5C 114.034,292.089 96.8676,293.422 79.5,292.5C 78.8333,292.5 78.5,292.167 78.5,291.5C 72.0821,245.906 85.7488,207.74 119.5,177C 126.615,171.573 134.615,168.407 143.5,167.5 Z"/></g>
<g><path style="opacity:0.996" fill="#131313" d="M 115.5,203.5 C 114.942,208.343 114.275,213.177 113.5,218C 113.813,222.189 114.313,226.356 115,230.5C 122.321,252.322 136.487,267.989 157.5,277.5C 164.542,273.963 171.208,269.797 177.5,265C 195.709,251.414 204.376,233.248 203.5,210.5C 205.762,237.008 200.262,262.008 187,285.5C 185.883,287.124 184.383,288.124 182.5,288.5C 173.548,286.24 165.048,282.907 157,278.5C 149.379,281.986 141.546,284.986 133.5,287.5C 131.795,286.455 130.295,285.122 129,283.5C 115.927,260.874 110.594,236.541 113,210.5C 113.698,207.996 114.531,205.663 115.5,203.5 Z"/></g>
<g><path style="opacity:0.024" fill="#ededed" d="M 29.5,278.5 C 34.4101,279.956 39.0768,281.956 43.5,284.5C 38.6291,283.752 33.9625,281.752 29.5,278.5 Z"/></g>
<g><path style="opacity:0.01" fill="#ededed" d="M 43.5,284.5 C 47.1715,284.757 50.5048,285.757 53.5,287.5C 49.7858,287.41 46.4525,286.41 43.5,284.5 Z"/></g>
<g><path style="opacity:0.125" fill="#e7e7e7" d="M 53.5,287.5 C 58.0768,287.925 62.4101,288.925 66.5,290.5C 61.8303,290.489 57.4969,289.489 53.5,287.5 Z"/></g>
<g><path style="opacity:0.994" fill="#686868" d="M 239.5,292.5 C 238.605,299.534 237.605,306.534 236.5,313.5C 232.41,325.571 227.41,337.405 221.5,349C 213.045,349.076 205.045,347.076 197.5,343C 183.586,336.397 170.752,328.23 159,318.5C 141.708,332.897 122.208,343.231 100.5,349.5C 98.4205,349.314 96.9205,348.314 96,346.5C 86.7603,329.616 81.2603,311.616 79.5,292.5C 96.8676,293.422 114.034,292.089 131,288.5C 134.975,293.068 138.975,297.735 143,302.5C 148.044,307.879 153.377,312.879 159,317.5C 163.956,313.547 168.622,309.214 173,304.5C 176.645,299.192 180.645,294.192 185,289.5C 202.977,293.482 221.144,294.482 239.5,292.5 Z"/></g>
<g><path style="opacity:0.009" fill="#f2f2f2" d="M 66.5,290.5 C 70.4809,291.021 74.4809,291.354 78.5,291.5C 78.5,292.167 78.8333,292.5 79.5,292.5C 81.2603,311.616 86.7603,329.616 96,346.5C 96.9205,348.314 98.4205,349.314 100.5,349.5C 122.208,343.231 141.708,332.897 159,318.5C 170.752,328.23 183.586,336.397 197.5,343C 205.045,347.076 213.045,349.076 221.5,349C 227.41,337.405 232.41,325.571 236.5,313.5C 234.137,324.398 230.971,334.732 227,344.5C 225.333,348.167 222.667,350.833 219,352.5C 208.386,349.474 197.886,345.974 187.5,342C 187.833,341.667 188.167,341.333 188.5,341C 178.068,335.546 168.068,329.379 158.5,322.5C 143.779,333.01 127.612,342.01 110,349.5C 109.667,349.167 109.333,348.833 109,348.5C 100.139,353.876 94.1388,351.543 91,341.5C 90.6667,341.833 90.3333,342.167 90,342.5C 84.3312,326.844 79.9978,310.51 77,293.5C 73.2495,293.025 69.7495,292.025 66.5,290.5 Z"/></g>
</svg>
